<?xml version="1.0" encoding="UTF-8" standalone="no"?>
<!-- Created with Inkscape (http://www.inkscape.org/) -->

<svg
   xmlns:dc="http://purl.org/dc/elements/1.1/"
   xmlns:cc="http://creativecommons.org/ns#"
   xmlns:rdf="http://www.w3.org/1999/02/22-rdf-syntax-ns#"
   xmlns:svg="http://www.w3.org/2000/svg"
   xmlns="http://www.w3.org/2000/svg"
   xmlns:sodipodi="http://sodipodi.sourceforge.net/DTD/sodipodi-0.dtd"
   xmlns:inkscape="http://www.inkscape.org/namespaces/inkscape"
   width="7.1309075mm"
   height="9.8112993mm"
   viewBox="0 0 7.1309075 9.8113003"
   version="1.1"
   id="svg8"
   sodipodi:docname="logo-mini.svg"
   inkscape:version="0.92.4 (5da689c313, 2019-01-14)">
  <defs
     id="defs2" />
  <sodipodi:namedview
     id="base"
     pagecolor="#ffffff"
     bordercolor="#666666"
     borderopacity="1.0"
     inkscape:pageopacity="0.0"
     inkscape:pageshadow="2"
     inkscape:zoom="0.98994949"
     inkscape:cx="293.35713"
     inkscape:cy="75.584353"
     inkscape:document-units="mm"
     inkscape:current-layer="layer1"
     showgrid="false"
     inkscape:window-width="2560"
     inkscape:window-height="1377"
     inkscape:window-x="-8"
     inkscape:window-y="-8"
     inkscape:window-maximized="1" />
  <metadata
     id="metadata5">
    <rdf:RDF>
      <cc:Work
         rdf:about="">
        <dc:format>image/svg+xml</dc:format>
        <dc:type
           rdf:resource="http://purl.org/dc/dcmitype/StillImage" />
        <dc:title></dc:title>
      </cc:Work>
    </rdf:RDF>
  </metadata>
  <g
     inkscape:label="Layer 1"
     inkscape:groupmode="layer"
     id="layer1"
     transform="translate(-51.127617,-154.00404)">
    <path
       style="fill:#cf3000;stroke-width:0.0182767"
       d="m 57.861961,163.78898 c -0.115337,-0.0224 -0.135434,-0.0561 -0.190548,-0.32294 -0.08741,-0.42265 -0.357827,-1.0564 -0.574462,-1.34611 -0.02957,-0.0396 -0.08712,-0.11683 -0.127932,-0.17177 -0.04079,-0.0551 -0.139988,-0.17066 -0.220407,-0.2572 -0.08044,-0.0865 -0.160025,-0.17323 -0.176915,-0.19257 -0.0169,-0.0195 -0.04153,-0.0451 -0.0548,-0.0575 -0.02849,-0.0262 -0.42269,-0.43799 -0.643364,-0.67219 -0.0852,-0.0905 -0.160181,-0.15895 -0.166732,-0.15245 -0.0063,0.009 -0.01467,0.43008 -0.01812,0.9411 -0.006,0.90587 -0.04038,1.65939 -0.08047,1.76482 -0.0093,0.025 -0.04317,0.0673 -0.07485,0.0935 -0.05106,0.0431 -0.07316,0.0487 -0.188912,0.0482 -0.0762,-0.004 -0.143752,-0.0128 -0.161304,-0.0234 -0.03744,-0.0283 -0.117853,-0.38576 -0.130954,-0.58146 -0.0086,-0.13074 -0.0071,-0.1389 0.02563,-0.13035 0.01921,0.008 0.03499,8e-5 0.03499,-0.0128 0,-0.0128 0.01204,-0.0153 0.02663,-0.009 0.02607,0.0128 0.02919,0.004 0.05724,-0.13543 0.0085,-0.0432 0.0115,-2.18093 0.0042,-2.1896 -0.0027,-0.004 -0.08697,-0.0183 -0.187398,-0.0345 -0.100429,-0.0162 -0.206627,-0.0345 -0.236005,-0.0405 -0.06894,-0.0138 -0.311538,-0.25234 -0.403455,-0.39672 -0.06547,-0.10314 -0.06815,-0.11296 -0.05709,-0.21842 0.0087,-0.0847 0.02277,-0.12235 0.05975,-0.16092 0.119713,-0.12494 0.269296,-0.12976 0.591281,-0.0192 0.04523,0.0156 0.09047,0.034 0.100521,0.0411 0.0099,0.009 0.04034,0.0177 0.06726,0.0243 0.02694,0.009 0.06264,0.0254 0.07931,0.0419 0.0433,0.0436 0.05617,0.0132 0.0701,-0.16435 0.0062,-0.0823 0.02316,-0.26858 0.03704,-0.41432 0.01394,-0.14578 0.0266,-0.37609 0.02818,-0.51174 0.006,-0.51333 0.03109,-0.59283 0.191983,-0.61294 0.113998,-0.0141 0.183049,0.0146 0.288536,0.11941 l 0.06804,0.0672 -0.01796,0.10779 c -0.02314,0.1388 -0.03043,0.23018 -0.04504,0.56466 -0.01437,0.32883 -0.03743,0.61408 -0.06286,0.77988 -0.02657,0.17289 -0.04193,0.36239 -0.02934,0.36239 0.0059,0 0.0433,-0.0204 0.08311,-0.0455 0.03981,-0.0249 0.07912,-0.046 0.08742,-0.046 0.01581,0 0.244246,-0.14396 0.259878,-0.16377 0.0052,-0.009 0.03561,-0.0299 0.06797,-0.0536 0.03238,-0.0227 0.07324,-0.0653 0.09073,-0.095 0.0175,-0.0298 0.04077,-0.0539 0.05165,-0.0539 0.01004,0 0.0302,-0.0288 0.04292,-0.0638 0.01271,-0.035 0.0308,-0.0639 0.04027,-0.0639 0.0093,0 0.01707,-0.009 0.01707,-0.0191 0,-0.0128 0.01439,-0.041 0.03198,-0.0673 0.08885,-0.13524 0.138566,-0.58567 0.08822,-0.79893 -0.02865,-0.12147 -0.06184,-0.17816 -0.219315,-0.37511 -0.13594,-0.17003 -0.484905,-0.46943 -0.768896,-0.65977 -0.17726,-0.1188 -0.478429,-0.27244 -0.534307,-0.27262 -0.03534,-1.4e-4 -0.04037,0.009 -0.03817,0.0682 0.0043,0.0772 -0.04114,0.26043 -0.06249,0.26043 -0.0078,0 -0.014,0.0227 -0.014,0.0509 0,0.0276 -0.0124,0.0683 -0.02762,0.0902 -0.01515,0.0218 -0.0327,0.0792 -0.03903,0.12746 -0.006,0.0486 -0.02264,0.10092 -0.03632,0.11684 -0.03547,0.0411 -0.11621,0.2039 -0.116303,0.23458 -2.95e-4,0.042 -0.123143,0.22932 -0.205692,0.31275 -0.02764,0.0276 -0.0503,0.0642 -0.0503,0.0804 0,0.0161 -0.01267,0.0345 -0.02813,0.0406 -0.01545,0.008 -0.04033,0.0344 -0.0553,0.0632 -0.01493,0.029 -0.03795,0.0525 -0.05115,0.0525 -0.01324,0 -0.04456,0.0226 -0.0697,0.0504 -0.02514,0.0275 -0.07384,0.0769 -0.108103,0.10899 -0.03433,0.0329 -0.07059,0.0681 -0.08066,0.0783 -0.02821,0.03 -0.223982,0.17701 -0.291987,0.21908 -0.06673,0.0415 -0.06874,0.0784 -0.0088,0.16474 0.0312,0.045 0.287908,0.56607 0.436738,0.88642 0.04201,0.0906 0.101718,0.21794 0.132645,0.2833 0.03091,0.0653 0.06691,0.14905 0.07996,0.18603 0.01304,0.0369 0.03699,0.0874 0.05329,0.11244 0.01626,0.024 0.03367,0.068 0.03874,0.0968 0.0053,0.0289 0.02851,0.0813 0.05215,0.11753 0.02363,0.036 0.05746,0.11815 0.07528,0.18277 0.0378,0.13745 0.126262,0.34056 0.169264,0.3886 0.02745,0.0306 0.02748,0.0352 0.0011,0.055 -0.01605,0.0128 -0.03473,0.0389 -0.04159,0.0608 -0.02015,0.0633 -0.05572,0.0805 -0.173872,0.0842 -0.06123,0.004 -0.111364,0.009 -0.111364,0.0165 0,0.009 -0.02485,0.007 -0.05529,-0.008 -0.08737,-0.0303 -0.196475,-0.22463 -0.306422,-0.54539 -0.04474,-0.13044 -0.192171,-0.48571 -0.269306,-0.64882 -0.03328,-0.0703 -0.0889,-0.18963 -0.12359,-0.26499 -0.03471,-0.0756 -0.09359,-0.20289 -0.130911,-0.28332 -0.03727,-0.0802 -0.09205,-0.19965 -0.121693,-0.265 -0.02966,-0.0654 -0.06183,-0.13113 -0.07148,-0.1462 -0.0096,-0.0152 -0.04203,-0.0725 -0.0719,-0.12798 -0.05925,-0.10955 -0.152927,-0.21083 -0.179818,-0.19421 -0.0092,0.008 -0.02191,0.0623 -0.02793,0.12519 -0.01612,0.16816 -0.0227,0.2043 -0.04432,0.24294 -0.01096,0.0197 -0.01511,0.0771 -0.0095,0.13025 0.0056,0.0525 0.0028,0.1108 -0.0029,0.12871 -0.01936,0.0464 -0.02528,0.0944 -0.0431,0.3439 -0.0084,0.12061 -0.02044,0.23758 -0.02634,0.25985 -0.006,0.0224 -0.01279,0.0922 -0.0153,0.15542 -0.0024,0.0632 -0.01004,0.12294 -0.01715,0.13303 -0.0068,0.0128 -0.01846,0.0961 -0.02571,0.19178 -0.0181,0.23901 -0.05932,0.30955 -0.174804,0.2992 -0.117597,-0.0128 -0.209451,-0.0295 -0.23162,-0.0469 -0.01211,-0.009 -0.02969,-0.0131 -0.03906,-0.009 -0.04797,0.0297 -0.0593,-0.0461 -0.04931,-0.33016 0.0056,-0.15923 0.01507,-0.31005 0.02096,-0.33514 0.01415,-0.0607 0.04322,-0.26368 0.05075,-0.35639 0.0043,-0.0402 0.01565,-0.14304 0.02748,-0.22848 0.04866,-0.35141 0.05905,-0.43458 0.06737,-0.53916 0.0049,-0.0608 0.01973,-0.18346 0.03329,-0.27364 0.02553,-0.16986 0.02232,-0.18917 -0.04521,-0.27465 -0.03148,-0.0398 -0.07027,-0.16167 -0.08405,-0.26416 -0.01779,-0.13212 -0.01228,-0.37621 0.0093,-0.41611 0.03365,-0.0621 0.173702,-0.13663 0.243345,-0.1298 l 0.05907,0.008 0.02388,-0.14624 c 0.01309,-0.0803 0.03212,-0.19199 0.04222,-0.24782 0.01004,-0.0559 0.01839,-0.13563 0.01839,-0.17718 0,-0.0415 0.0086,-0.0808 0.01955,-0.0874 0.0099,-0.009 0.01523,-0.0231 0.0098,-0.0369 -0.0056,-0.0136 -0.0015,-0.0725 0.0081,-0.13069 0.0095,-0.0582 0.02579,-0.17568 0.03595,-0.26108 0.0099,-0.0854 0.02265,-0.18418 0.02777,-0.21932 0.0054,-0.035 0.01004,-0.21616 0.01134,-0.40209 0.0014,-0.25341 -0.0057,-0.37464 -0.02893,-0.48372 -0.02864,-0.13556 -0.02869,-0.15107 -10e-4,-0.22452 0.0551,-0.1444 0.212592,-0.1569 0.363456,-0.0289 0.03953,0.0336 0.07877,0.0613 0.08727,0.0613 0.01543,0 0.05192,0.0765 0.06118,0.12788 0.0028,0.0153 0.01004,0.0481 0.01796,0.0727 0.02396,0.084 0.02269,0.78932 -0.0015,0.86383 -0.01287,0.0398 -0.01527,0.0729 -0.0059,0.079 0.009,0.008 0.01166,0.0177 0.006,0.0272 -0.01564,0.0256 -0.08092,0.50753 -0.08064,0.59588 2.93e-4,0.0326 -0.0084,0.0633 -0.01936,0.0701 -0.01004,0.009 -0.01454,0.0275 -0.0082,0.0462 0.006,0.0192 0.0029,0.0451 -0.0028,0.0581 -0.0082,0.0128 -0.01699,0.0641 -0.01978,0.11447 -0.0047,0.0845 -0.03484,0.26294 -0.07873,0.46604 -0.04419,0.20483 -0.04332,0.23084 0.0097,0.28628 0.02732,0.0284 0.0608,0.0767 0.07442,0.10669 0.01359,0.03 0.04488,0.0795 0.06952,0.10956 l 0.0448,0.0548 0.120764,-0.11871 c 0.06643,-0.0653 0.137125,-0.12617 0.157122,-0.13524 0.02,-0.009 0.03634,-0.0273 0.03634,-0.0398 0,-0.0131 0.01486,-0.0345 0.03306,-0.0475 0.01816,-0.0131 0.06853,-0.0711 0.111859,-0.12895 0.04335,-0.0581 0.08603,-0.1051 0.09488,-0.1051 0.0087,0 0.0161,-0.016 0.0161,-0.036 0,-0.02 0.01578,-0.0509 0.03507,-0.0682 0.0193,-0.018 0.0409,-0.056 0.04809,-0.0845 0.0072,-0.0283 0.02427,-0.056 0.038,-0.0613 0.01377,-0.008 0.02507,-0.0295 0.02507,-0.0529 0,-0.0242 0.008,-0.0438 0.01757,-0.0438 0.0095,0 0.02785,-0.0346 0.04041,-0.0774 0.01253,-0.0426 0.03257,-0.0859 0.04441,-0.0957 0.01187,-0.0128 0.03148,-0.0633 0.04359,-0.11881 0.01211,-0.0554 0.03356,-0.14055 0.04767,-0.18945 0.01413,-0.0488 0.02571,-0.0954 0.02571,-0.1043 0,-0.021 -0.134288,0.004 -0.150504,0.0268 -0.0075,0.0128 -0.01357,0.0131 -0.0137,0.005 -2.97e-4,-0.009 -0.01211,-0.009 -0.02652,0.008 -0.01844,0.0152 -0.03649,0.016 -0.06092,0.004 -0.07201,-0.0387 -0.09205,-0.0846 -0.104866,-0.2399 -0.0043,-0.0451 -0.01144,-0.10399 -0.01721,-0.13134 -0.0057,-0.0272 -0.0018,-0.0542 0.0081,-0.0607 0.01004,-0.009 0.01842,-0.032 0.01842,-0.0556 0,-0.0574 0.09155,-0.1053 0.272134,-0.14262 0.07333,-0.0154 0.137948,-0.032 0.143557,-0.0377 0.01004,-0.0128 0.01387,-0.26949 0.006,-0.50427 -0.0049,-0.15136 -0.09333,-0.55025 -0.148919,-0.67149 -0.01958,-0.0424 -0.03553,-0.0885 -0.03553,-0.10292 0,-0.0139 -0.01228,-0.0356 -0.02739,-0.0483 -0.01507,-0.0128 -0.02745,-0.0344 -0.02745,-0.0487 0,-0.0144 -0.03161,-0.0688 -0.0703,-0.1211 -0.03863,-0.0523 -0.0831,-0.11986 -0.09878,-0.15004 -0.02966,-0.0569 -0.111521,-0.13705 -0.140116,-0.13705 -0.0089,0 -0.07687,-0.0509 -0.150644,-0.11254 -0.306572,-0.2573 -0.492108,-0.33802 -0.735757,-0.32026 -0.267801,0.0198 -0.541292,0.1417 -0.842267,0.37614 -0.06031,0.0467 -0.147486,0.10744 -0.193732,0.13428 -0.169709,0.0985 -0.417985,0.42448 -0.457668,0.60113 -0.0093,0.0418 -0.0177,0.11999 -0.01831,0.17331 -10e-4,0.0536 -0.01004,0.10468 -0.02214,0.11411 -0.03432,0.0276 -0.214456,0.0759 -0.285801,0.0759 -0.09451,0 -0.127802,-0.0325 -0.155875,-0.15358 -0.05665,-0.24384 0.08967,-0.66382 0.306156,-0.8788 0.04291,-0.0424 0.09069,-0.093 0.106278,-0.11196 0.01556,-0.0191 0.05567,-0.0553 0.08912,-0.08 0.03346,-0.0254 0.07428,-0.058 0.0907,-0.0729 0.04565,-0.0418 0.215705,-0.16451 0.22819,-0.16451 0.006,0 0.02769,-0.0146 0.04801,-0.032 0.07749,-0.0671 0.426944,-0.25045 0.567242,-0.29778 0.05568,-0.019 0.135855,-0.0397 0.178194,-0.0467 0.04238,-0.009 0.07697,-0.0189 0.07697,-0.027 0,-0.021 0.447837,-0.009 0.573574,0.0188 0.124622,0.0249 0.19814,0.0509 0.212744,0.0745 0.0056,0.009 0.03053,0.0204 0.05517,0.0256 0.02469,0.007 0.04695,0.0128 0.04948,0.0128 0.0024,0.004 0.01004,0.008 0.01827,0.009 0.04714,0.0128 0.152668,0.0747 0.206482,0.12704 0.0347,0.0334 0.08562,0.0661 0.113118,0.0728 0.02746,0.009 0.06338,0.0324 0.07977,0.0579 0.01636,0.025 0.04579,0.0453 0.06542,0.0453 0.05756,0 0.110405,0.0365 0.09842,0.0675 -0.0074,0.0192 -0.0024,0.0253 0.01535,0.018 0.01694,-0.009 0.03647,0.0128 0.05552,0.0519 0.02007,0.0418 0.03828,0.0587 0.05703,0.0515 0.05148,-0.02 0.180108,0.13802 0.218538,0.26801 0.01273,0.0433 0.03133,0.0658 0.05717,0.0699 0.02264,0.004 0.05224,0.0331 0.0726,0.0729 0.01891,0.037 0.05287,0.093 0.07548,0.12419 0.02264,0.0309 0.04144,0.0724 0.0418,0.0915 2.91e-4,0.0193 0.01253,0.0556 0.0267,0.0804 0.01437,0.0255 0.02676,0.0624 0.02748,0.0828 0.0011,0.0201 0.01715,0.0697 0.03657,0.11013 0.01942,0.0399 0.03556,0.0994 0.03593,0.13143 2.9e-4,0.0321 0.0093,0.0635 0.02012,0.0703 0.0099,0.009 0.01507,0.0236 0.0095,0.0377 -0.0056,0.0138 -0.0013,0.0484 0.009,0.076 0.0099,0.0274 0.01935,0.0829 0.01979,0.12321 3.12e-4,0.0404 0.0077,0.0863 0.01586,0.10186 0.02562,0.0487 0.03846,0.48452 0.01572,0.53441 -0.01721,0.0376 -0.01387,0.052 0.02183,0.0932 0.04054,0.0459 0.13141,0.10218 0.167031,0.10218 0.01963,0 0.247091,0.10091 0.288003,0.12786 0.0422,0.0275 0.258934,0.12797 0.276679,0.12797 0.0085,0 0.01578,0.009 0.01578,0.0169 0,0.009 0.02934,0.0266 0.06508,0.0386 0.03582,0.0128 0.103468,0.0586 0.150332,0.10439 0.04689,0.0454 0.117502,0.10441 0.156948,0.13074 0.111543,0.0745 0.11782,0.0795 0.214668,0.16668 0.192507,0.17355 0.454712,0.4465 0.454712,0.47328 0,0.009 0.02434,0.0374 0.05409,0.0626 0.05211,0.044 0.136889,0.2151 0.183087,0.36979 0.02662,0.0889 0.01375,0.48355 -0.0185,0.56575 -0.01187,0.03 -0.02407,0.0918 -0.02714,0.13707 -0.0043,0.0452 -0.006,0.0926 -0.0072,0.10522 -0.0011,0.0128 -0.01798,0.0369 -0.03805,0.0542 -0.02006,0.0174 -0.04142,0.0578 -0.0474,0.0895 -0.006,0.0319 -0.03077,0.0771 -0.0549,0.0997 -0.02413,0.0226 -0.04395,0.0493 -0.04395,0.0595 0,0.0128 -0.03497,0.0538 -0.07766,0.0962 -0.04268,0.0426 -0.0868,0.0884 -0.09801,0.10187 -0.0403,0.0483 -0.163372,0.14844 -0.206384,0.16799 -0.02414,0.0128 -0.06619,0.041 -0.09333,0.066 -0.09268,0.0865 -0.257621,0.1764 -0.424786,0.23164 -0.0176,0.008 -0.03197,0.0185 -0.03197,0.0272 0,0.0231 0.285431,0.33361 0.52699,0.57321 0.111477,0.11095 0.210546,0.20929 0.220179,0.21931 0.221869,0.23148 0.323149,0.34071 0.634721,0.68469 0.04129,0.0467 0.09476,0.11287 0.118782,0.1494 0.02403,0.0366 0.103321,0.15474 0.176204,0.26275 0.07284,0.108 0.132501,0.20756 0.132501,0.22139 0,0.0139 0.0078,0.025 0.017,0.025 0.03576,0 0.09628,0.11264 0.09619,0.17897 -7.2e-5,0.0473 0.01779,0.0927 0.0594,0.15088 0.06572,0.0918 0.142458,0.27917 0.134207,0.32786 -0.0043,0.0177 0.0043,0.0426 0.01452,0.0567 0.03885,0.0506 0.135541,0.41875 0.135541,0.51676 0,0.0821 -0.164822,0.21556 -0.259534,0.21015 -0.02313,-0.004 -0.08386,-0.0128 -0.134944,-0.0204 z m -2.826146,-3.80625 c -0.03697,-0.0247 -0.07798,-0.0454 -0.09106,-0.045 -0.04076,0.004 0.07642,0.0909 0.118521,0.0909 0.03354,0 0.0292,-0.009 -0.0275,-0.0459 z"
       id="path3724"
       inkscape:connector-curvature="0" />
  </g>
</svg>
