<?xml version="1.0" encoding="UTF-8" standalone="no"?>
<!-- Created with Inkscape (http://www.inkscape.org/) -->

<svg
   xmlns:dc="http://purl.org/dc/elements/1.1/"
   xmlns:cc="http://creativecommons.org/ns#"
   xmlns:rdf="http://www.w3.org/1999/02/22-rdf-syntax-ns#"
   xmlns:svg="http://www.w3.org/2000/svg"
   xmlns="http://www.w3.org/2000/svg"
   xmlns:sodipodi="http://sodipodi.sourceforge.net/DTD/sodipodi-0.dtd"
   xmlns:inkscape="http://www.inkscape.org/namespaces/inkscape"
   width="100mm"
   height="100mm"
   viewBox="0 0 100 100.00001"
   version="1.1"
   id="svg8"
   sodipodi:docname="logo.svg"
   inkscape:version="0.92.4 (5da689c313, 2019-01-14)">
  <defs
     id="defs2" />
  <sodipodi:namedview
     id="base"
     pagecolor="#ffffff"
     bordercolor="#666666"
     borderopacity="1.0"
     inkscape:pageopacity="0.0"
     inkscape:pageshadow="2"
     inkscape:zoom="0.98994949"
     inkscape:cx="346.27574"
     inkscape:cy="75.561629"
     inkscape:document-units="mm"
     inkscape:current-layer="layer1"
     showgrid="false"
     inkscape:window-width="2560"
     inkscape:window-height="1377"
     inkscape:window-x="-8"
     inkscape:window-y="-8"
     inkscape:window-maximized="1" />
  <metadata
     id="metadata5">
    <rdf:RDF>
      <cc:Work
         rdf:about="">
        <dc:format>image/svg+xml</dc:format>
        <dc:type
           rdf:resource="http://purl.org/dc/dcmitype/StillImage" />
        <dc:title></dc:title>
      </cc:Work>
    </rdf:RDF>
  </metadata>
  <g
     inkscape:label="Layer 1"
     inkscape:groupmode="layer"
     id="layer1"
     transform="translate(-37.126234,-63.809327)">
    <path
       style="fill:#cf3000;stroke-width:0.18639901"
       d="m 119.83389,163.60033 c -1.17634,-0.22715 -1.38125,-0.57443 -1.94339,-3.29335 -0.89117,-4.31052 -3.6494,-10.77398 -5.85879,-13.72906 -0.30149,-0.40325 -0.88865,-1.19145 -1.30479,-1.75157 -0.41614,-0.56012 -1.42767,-1.7405 -2.24781,-2.62304 -0.82016,-0.88257 -1.63208,-1.76635 -1.80428,-1.964 -0.1722,-0.19763 -0.42384,-0.46095 -0.55919,-0.58513 -0.29073,-0.26674 -4.3109,-4.46714 -6.561471,-6.85561 -0.868485,-0.9217 -1.633689,-1.62121 -1.700447,-1.55445 -0.06673,0.0669 -0.149685,4.38577 -0.184289,9.5978 -0.06136,9.23839 -0.411736,16.92362 -0.820653,17.99915 -0.09566,0.2516 -0.439227,0.68071 -0.763474,0.95352 -0.520528,0.43802 -0.746082,0.49538 -1.926636,0.49014 -0.777109,-0.004 -1.466098,-0.10391 -1.645117,-0.24025 -0.381394,-0.29016 -1.202005,-3.93373 -1.335547,-5.92994 -0.08917,-1.33319 -0.0727,-1.41708 0.261586,-1.32966 0.196236,0.0514 0.356794,7.7e-4 0.356794,-0.10896 0,-0.11125 0.122307,-0.15533 0.271788,-0.098 0.265141,0.10186 0.297787,0.0246 0.584066,-1.38141 0.08917,-0.43791 0.116874,-22.24228 0.02839,-22.33078 -0.02706,-0.027 -0.887102,-0.18572 -1.911274,-0.35266 -1.024172,-0.16695 -2.107303,-0.35253 -2.406964,-0.41237 -0.703004,-0.14041 -3.177255,-2.57336 -4.114706,-4.04601 -0.667539,-1.04864 -0.694605,-1.15222 -0.582195,-2.22769 0.09043,-0.86533 0.232345,-1.24738 0.60946,-1.64102 1.220849,-1.27429 2.746434,-1.32367 6.030274,-0.19513 0.461336,0.15855 0.922676,0.34612 1.025192,0.41685 0.102527,0.0707 0.411202,0.18223 0.685963,0.24777 0.274759,0.0656 0.638857,0.25849 0.809109,0.42874 0.441485,0.44148 0.572605,0.13418 0.715116,-1.67595 0.06597,-0.83784 0.236026,-2.73961 0.377905,-4.22614 0.14188,-1.48653 0.271521,-3.83515 0.288078,-5.21916 0.06264,-5.23489 0.316653,-6.04584 1.957986,-6.25091 1.162568,-0.14525 1.866824,0.14627 2.942671,1.21812 l 0.693657,0.69108 -0.183127,1.09906 c -0.235931,1.41596 -0.310226,2.34751 -0.459359,5.75904 -0.146603,3.35376 -0.381081,6.2628 -0.641076,7.95339 -0.271248,1.76381 -0.427493,3.69655 -0.298846,3.69655 0.06012,0 0.441471,-0.20971 0.847472,-0.46601 0.405998,-0.25629 0.807054,-0.46599 0.891225,-0.46599 0.161609,0 2.490939,-1.46816 2.650359,-1.67046 0.0512,-0.065 0.36344,-0.30702 0.69374,-0.53768 0.33031,-0.23064 0.74682,-0.66696 0.92559,-0.9696 0.17876,-0.30263 0.41592,-0.55024 0.527,-0.55024 0.11108,0 0.30813,-0.29358 0.43787,-0.65241 0.12973,-0.35881 0.31436,-0.65238 0.41025,-0.65238 0.0959,0 0.17433,-0.0868 0.17433,-0.19295 0,-0.10615 0.1468,-0.41654 0.32619,-0.68981 0.90597,-1.37992 1.41315,-5.97376 0.89965,-8.14867 -0.29234,-1.2382 -0.63055,-1.81661 -2.2368,-3.82548 -1.38641,-1.7339 -4.945291,-4.7876 -7.841678,-6.728555 -1.807776,-1.211441 -4.87935,-2.779001 -5.449215,-2.780972 -0.360196,-0.0011 -0.411749,0.09107 -0.389625,0.697555 0.02874,0.787742 -0.41959,2.656188 -0.637351,2.656188 -0.07826,0 -0.142289,0.232976 -0.142289,0.517721 0,0.28475 -0.126662,0.698553 -0.281463,0.919563 -0.154799,0.22101 -0.33386,0.80586 -0.397901,1.29967 -0.06404,0.4938 -0.230792,1.03006 -0.370554,1.19168 -0.361583,0.41813 -1.185167,2.07948 -1.186094,2.39262 -0.0011,0.43104 -1.255792,2.33836 -2.09777,3.18938 -0.281926,0.28494 -0.512598,0.65482 -0.512598,0.82195 0,0.1671 -0.128918,0.35333 -0.286489,0.41381 -0.157585,0.0604 -0.411364,0.3514 -0.563988,0.64653 -0.152619,0.29514 -0.387292,0.53661 -0.521487,0.53661 -0.134208,0 -0.453923,0.23068 -0.710496,0.51261 -0.256568,0.28192 -0.752744,0.78229 -1.102606,1.11194 -0.34986,0.32965 -0.719994,0.68901 -0.822513,0.7986 -0.287678,0.30749 -2.284351,1.80543 -2.977902,2.23406 -0.680457,0.42054 -0.701007,0.79956 -0.09112,1.68036 0.318214,0.45956 2.936296,5.7733 4.454185,9.04035 0.428682,0.92269 1.037434,2.2228 1.352785,2.88919 0.315353,0.66638 0.682276,1.52023 0.815389,1.89745 0.133114,0.37722 0.377638,0.89285 0.543388,1.14582 0.165751,0.25296 0.343621,0.69924 0.395276,0.99173 0.05167,0.29247 0.290894,0.83182 0.53164,1.19854 0.240752,0.36672 0.585902,1.20551 0.766987,1.86398 0.385507,1.40178 1.287738,3.47326 1.726284,3.96345 0.279975,0.31296 0.280879,0.36205 0.01053,0.55992 -0.163111,0.11929 -0.353997,0.39772 -0.42414,0.61873 -0.205689,0.64807 -0.568059,0.8231 -1.773266,0.85649 -0.624703,0.0175 -1.13583,0.093 -1.13583,0.16837 0,0.0753 -0.253762,0.0483 -0.563917,-0.0597 -0.891185,-0.31069 -2.003771,-2.29099 -3.125095,-5.56241 -0.456088,-1.33061 -1.959845,-4.95351 -2.746589,-6.61716 -0.33937,-0.71764 -0.906601,-1.93389 -1.260514,-2.70277 -0.353909,-0.76891 -0.954678,-2.06904 -1.335044,-2.8892 -0.380362,-0.82016 -0.938905,-2.0364 -1.241211,-2.70278 -0.302306,-0.66639 -0.630425,-1.33742 -0.729157,-1.4912 -0.09874,-0.15377 -0.428742,-0.74093 -0.733348,-1.30479 -0.604124,-1.11829 -1.559659,-2.15038 -1.833933,-1.98088 -0.09509,0.0588 -0.223329,0.63335 -0.284994,1.27686 -0.164347,1.715 -0.231594,2.08368 -0.451834,2.47723 -0.111008,0.1984 -0.154242,0.78403 -0.09804,1.32858 0.05527,0.53557 0.03735,1.12625 -0.03983,1.31259 -0.197232,0.47616 -0.258412,0.96461 -0.439236,3.50757 -0.08748,1.23023 -0.208376,2.42289 -0.268688,2.65035 -0.0603,0.22745 -0.130667,0.94045 -0.15635,1.58439 -0.02569,0.64396 -0.104426,1.25473 -0.17496,1.35724 -0.07055,0.10255 -0.188531,0.98252 -0.262218,1.95556 -0.184606,2.43767 -0.605048,3.15737 -1.782785,3.05181 -1.199153,-0.10747 -2.136088,-0.29737 -2.362182,-0.47873 -0.123662,-0.0992 -0.302885,-0.1321 -0.398281,-0.0733 -0.489436,0.30248 -0.604754,-0.46977 -0.502793,-3.36716 0.05713,-1.62376 0.153587,-3.16201 0.214338,-3.41831 0.144432,-0.60951 0.440582,-2.68902 0.517621,-3.63478 0.0334,-0.41007 0.159502,-1.45857 0.280218,-2.32999 0.496434,-3.58356 0.602331,-4.43189 0.686413,-5.49877 0.04852,-0.61511 0.201155,-1.87093 0.339326,-2.79067 0.26021,-1.7324 0.227763,-1.92959 -0.460931,-2.8013 -0.321049,-0.40636 -0.716354,-1.64847 -0.857244,-2.69362 -0.181673,-1.34764 -0.125788,-3.83683 0.09526,-4.24389 0.343267,-0.63213 1.77158,-1.3939 2.481785,-1.32365 l 0.602547,0.0596 0.243306,-1.49119 c 0.133814,-0.82015 0.32763,-1.95758 0.430684,-2.5276 0.103065,-0.57003 0.187392,-1.382909 0.187392,-1.806396 0,-0.423485 0.08958,-0.82535 0.199098,-0.89303 0.109509,-0.06769 0.155331,-0.237165 0.101806,-0.376617 -0.05353,-0.139465 -0.0172,-0.739108 0.08113,-1.332544 0.09815,-0.593433 0.26298,-1.791946 0.366295,-2.663356 0.103305,-0.87142 0.230818,-1.877975 0.283342,-2.236796 0.0525,-0.358813 0.104495,-2.204163 0.11549,-4.100776 0.01502,-2.584022 -0.05869,-3.820575 -0.293937,-4.93325 -0.292308,-1.382568 -0.292748,-1.540352 -0.0065,-2.290208 0.56221,-1.472117 2.168234,-1.599791 3.706859,-0.294678 0.402899,0.341753 0.803403,0.621372 0.890004,0.621372 0.157489,0 0.529424,0.777857 0.623888,1.304794 0.02759,0.153782 0.110092,0.489296 0.183345,0.745597 0.244442,0.855031 0.231568,8.049718 -0.01575,8.809392 -0.131264,0.403161 -0.156714,0.745245 -0.0599,0.805074 0.09257,0.05724 0.119875,0.182425 0.06067,0.278255 -0.159598,0.258233 -0.825063,5.175679 -0.822378,6.076968 0.0011,0.325475 -0.08771,0.64708 -0.19711,0.714681 -0.109395,0.06762 -0.148087,0.282869 -0.08606,0.478358 0.06202,0.19551 0.04543,0.46105 -0.03689,0.59011 -0.08235,0.1291 -0.172997,0.65407 -0.201471,1.16666 -0.04772,0.85873 -0.355503,2.68164 -0.802582,4.75318 -0.45081,2.08886 -0.441672,2.35424 0.100524,2.91973 0.27878,0.29075 0.620407,0.78029 0.759169,1.08785 0.13875,0.30755 0.457848,0.81061 0.709076,1.11789 l 0.456778,0.55868 1.231651,-1.21108 c 0.677402,-0.6661 1.398513,-1.28682 1.60246,-1.37937 0.203944,-0.0925 0.370826,-0.27653 0.370826,-0.40883 0,-0.13231 0.151672,-0.35015 0.337083,-0.48411 0.185381,-0.13396 0.698746,-0.72587 1.140787,-1.31537 0.442038,-0.58949 0.877508,-1.07179 0.967708,-1.07179 0.09021,0 0.164007,-0.16449 0.164007,-0.36554 0,-0.20103 0.160955,-0.51559 0.357674,-0.699 0.196698,-0.18341 0.417216,-0.5709 0.489982,-0.8611 0.07278,-0.29021 0.247332,-0.5718 0.387926,-0.62575 0.140571,-0.0539 0.255614,-0.2988 0.255614,-0.54414 0,-0.24533 0.08052,-0.44605 0.178911,-0.44605 0.09842,0 0.283819,-0.35649 0.412034,-0.7922 0.128221,-0.4357 0.332125,-0.87607 0.453135,-0.97859 0.121026,-0.10253 0.320919,-0.64774 0.444254,-1.211597 0.123342,-0.563853 0.342185,-1.433256 0.486344,-1.931993 0.144138,-0.498745 0.262104,-0.975777 0.262104,-1.060079 0,-0.217246 -1.369614,0.02504 -1.534936,0.271509 -0.07532,0.112302 -0.138226,0.131003 -0.139798,0.04153 -0.0016,-0.08943 -0.123299,-0.06264 -0.270537,0.05954 -0.188458,0.1564 -0.372315,0.166165 -0.621128,0.03303 -0.734458,-0.39307 -0.93882,-0.860528 -1.069473,-2.446298 -0.038,-0.461342 -0.116903,-1.064101 -0.175276,-1.339474 -0.0584,-0.27538 -0.02157,-0.552936 0.08169,-0.616799 0.103327,-0.06386 0.187877,-0.319167 0.187877,-0.567328 0,-0.584007 0.934118,-1.073625 2.775398,-1.45472 0.7481,-0.154848 1.406952,-0.328299 1.464123,-0.385466 0.108627,-0.108629 0.141852,-2.747696 0.06475,-5.142566 -0.04972,-1.543803 -0.951911,-5.611704 -1.518797,-6.848134 -0.199266,-0.434589 -0.362276,-0.906624 -0.362276,-1.048971 0,-0.142347 -0.125819,-0.363224 -0.279604,-0.49085 -0.153779,-0.127639 -0.279598,-0.351177 -0.279598,-0.49678 0,-0.14561 -0.322591,-0.701519 -0.716861,-1.235371 -0.394274,-0.533851 -0.847622,-1.222276 -1.007435,-1.529832 -0.302029,-0.581271 -1.136872,-1.397992 -1.429003,-1.397992 -0.09246,0 -0.783815,-0.516743 -1.536374,-1.148315 -3.126628,-2.623968 -5.018869,-3.447636 -7.503829,-3.266318 -2.73115,0.199292 -5.520444,1.445057 -8.589991,3.83653 -0.615118,0.479232 -1.504226,1.09509 -1.9758,1.368569 -1.73084,1.003766 -4.26295,4.329727 -4.667682,6.131069 -0.09616,0.427961 -0.180147,1.223455 -0.186643,1.767768 -0.0065,0.544312 -0.108033,1.068083 -0.225631,1.163932 -0.349884,0.285197 -2.1872,0.77151 -2.914793,0.77151 -0.963628,0 -1.303369,-0.334809 -1.589724,-1.566657 -0.578015,-2.486539 0.914465,-6.770211 3.122425,-8.9619 0.437521,-0.434295 0.925232,-0.948149 1.083802,-1.141903 0.158579,-0.193742 0.567619,-0.56198 0.908991,-0.818277 0.341371,-0.2563 0.757731,-0.591818 0.925241,-0.745598 0.465547,-0.427398 2.199901,-1.67759 2.327273,-1.67759 0.06197,0 0.282517,-0.146802 0.490068,-0.326198 0.790256,-0.68309 4.354272,-2.553772 5.785101,-3.036485 0.567729,-0.191537 1.385555,-0.404739 1.817389,-0.47379 0.431833,-0.06906 0.785156,-0.191997 0.785156,-0.273176 0,-0.215986 4.567345,-0.06804 5.849717,0.189478 1.271057,0.25527 2.020775,0.517294 2.169742,0.758329 0.0578,0.09351 0.311143,0.207844 0.562988,0.254084 0.251851,0.04623 0.478876,0.100787 0.504507,0.121214 0.02562,0.02036 0.10951,0.05082 0.186399,0.06755 0.480536,0.104393 1.557022,0.766518 2.105857,1.295241 0.35394,0.340974 0.873133,0.676326 1.153763,0.745223 0.280635,0.06891 0.646768,0.333637 0.813636,0.588306 0.166866,0.254669 0.46702,0.463041 0.66701,0.463041 0.586901,0 1.12598,0.369164 1.003843,0.687443 -0.07483,0.195074 -0.02516,0.253574 0.156327,0.183951 0.172536,-0.06621 0.371657,0.120356 0.566359,0.530654 0.204282,0.430462 0.390264,0.598231 0.58176,0.52475 0.525112,-0.201497 1.836858,1.407055 2.228833,2.733179 0.130056,0.44 0.319831,0.670759 0.582925,0.708804 0.230938,0.0334 0.532998,0.337589 0.74036,0.745598 0.192649,0.379053 0.538993,0.948742 0.769663,1.265975 0.230671,0.317237 0.422372,0.736633 0.426007,0.931997 0.0037,0.195364 0.126473,0.564903 0.272991,0.821201 0.146512,0.2563 0.272209,0.633757 0.27932,0.838795 0.0073,0.205035 0.174985,0.708318 0.373078,1.118395 0.198077,0.410077 0.362995,1.013255 0.36647,1.340392 0.0037,0.327139 0.0959,0.650172 0.205424,0.717851 0.109508,0.0677 0.153804,0.241117 0.09844,0.385416 -0.05537,0.144285 -0.01384,0.491351 0.09279,0.771223 0.106407,0.279872 0.197279,0.845331 0.201931,1.256575 0.0048,0.411244 0.07754,0.878785 0.161972,1.038982 0.26145,0.496098 0.392343,4.941733 0.160494,5.450599 -0.175421,0.385021 -0.140935,0.532064 0.22287,0.950499 0.413646,0.47574 1.340275,1.043196 1.703484,1.043196 0.200769,0 2.51999,1.029393 2.937298,1.303737 0.430335,0.282908 2.640785,1.305855 2.821766,1.305855 0.08833,0 0.160612,0.07735 0.160612,0.171931 0,0.09457 0.298839,0.270566 0.664088,0.391111 0.36525,0.120559 1.05516,0.599244 1.53314,1.063792 0.47798,0.464543 1.19824,1.064426 1.60058,1.333084 1.1379,0.759778 1.20175,0.809364 2.18943,1.700044 1.96325,1.770465 4.63751,4.554225 4.63751,4.827415 0,0.0947 0.24828,0.38114 0.55174,0.63649 0.53125,0.44701 1.39618,2.19406 1.86728,3.77162 0.27185,0.91039 0.14036,4.93146 -0.1887,5.76961 -0.12076,0.30755 -0.24532,0.93664 -0.27685,1.39798 -0.0315,0.46134 -0.0646,0.94447 -0.0734,1.07362 -0.009,0.12917 -0.1835,0.37814 -0.38809,0.55333 -0.2046,0.17518 -0.42229,0.58665 -0.48378,0.91439 -0.0615,0.32773 -0.31349,0.78536 -0.56,1.01695 -0.24653,0.23159 -0.44822,0.50472 -0.44822,0.60694 0,0.10228 -0.35648,0.54231 -0.7922,0.97799 -0.43571,0.43567 -0.88529,0.90359 -0.99906,1.03983 -0.41052,0.49156 -1.66618,1.51389 -2.10486,1.71377 -0.24656,0.11228 -0.67486,0.4156 -0.95177,0.6739 -0.94533,0.88182 -2.6274,1.79909 -4.33226,2.3625 -0.17942,0.0593 -0.3262,0.18361 -0.3262,0.27625 0,0.23576 2.91112,3.40222 5.37464,5.84604 1.1368,1.12771 2.14732,2.13427 2.2456,2.23678 2.26288,2.3606 3.2958,3.47485 6.47332,6.98302 0.42131,0.46516 0.96654,1.15074 1.21159,1.52355 0.24508,0.37277 1.0537,1.57857 1.79696,2.67958 0.74327,1.10095 1.35141,2.11705 1.35141,2.25798 0,0.14096 0.0781,0.25622 0.17371,0.25622 0.36441,0 0.98195,1.14938 0.98091,1.82573 -5.2e-4,0.48298 0.18156,0.94544 0.60615,1.53804 0.67024,0.93537 1.45283,2.84759 1.36868,3.34431 -0.0296,0.17478 0.037,0.43554 0.14827,0.57943 0.39685,0.51374 1.38225,4.27068 1.38225,5.27002 0,0.83747 -1.68093,2.19869 -2.64693,2.14349 -0.23576,-0.013 -0.85506,-0.10678 -1.3762,-0.20744 z M 91.010754,124.78166 c -0.377181,-0.2563 -0.795077,-0.46335 -0.928666,-0.46012 -0.415876,0.0103 0.779734,0.92611 1.208767,0.92611 0.341937,0 0.29793,-0.0733 -0.280101,-0.46599 z"
       id="path3724"
       inkscape:connector-curvature="0" />
  </g>
</svg>
