<?xml version="1.0" standalone="no"?>
<!DOCTYPE svg PUBLIC "-//W3C//DTD SVG 20010904//EN"
 "http://www.w3.org/TR/2001/REC-SVG-20010904/DTD/svg10.dtd">
<svg version="1.0" xmlns="http://www.w3.org/2000/svg"
 width="700.000000pt" height="700.000000pt" viewBox="0 0 700.000000 700.000000"
 preserveAspectRatio="xMidYMid meet">
<metadata>
Created by potrace 1.11, written by Peter Selinger 2001-2013
</metadata>
<g transform="translate(0.000000,700.000000) scale(0.100000,-0.100000)"
fill="#000000" stroke="none">
<path d="M2175 6985 c-16 -7 -43 -15 -60 -18 -220 -38 -676 -319 -888 -547
-83 -91 -132 -163 -174 -260 -63 -147 -85 -284 -63 -390 21 -101 71 -124 202
-94 119 28 121 31 133 179 12 150 174 389 334 493 31 20 90 62 131 92 258 192
442 269 655 274 136 4 301 -75 486 -233 8 -6 30 -25 49 -41 19 -16 39 -30 43
-30 27 0 78 -57 148 -163 43 -66 79 -124 79 -130 0 -6 7 -18 15 -27 36 -40
111 -292 143 -482 22 -130 25 -464 4 -477 -8 -5 -39 -14 -70 -20 -145 -31
-222 -71 -222 -116 0 -13 -5 -27 -11 -30 -7 -5 -8 -26 -4 -59 3 -28 8 -69 11
-91 12 -101 36 -150 78 -161 12 -3 47 4 77 15 30 12 64 21 76 21 20 0 22 -4
17 -32 -3 -18 -10 -44 -14 -58 -5 -14 -18 -62 -30 -107 -11 -45 -29 -97 -39
-115 -10 -18 -24 -50 -31 -70 -6 -21 -15 -38 -20 -38 -5 0 -12 -16 -16 -35 -3
-19 -10 -35 -14 -35 -4 0 -20 -24 -34 -52 -38 -74 -77 -142 -85 -148 -4 -3
-33 -36 -65 -75 -32 -38 -65 -74 -72 -78 -8 -4 -14 -14 -14 -21 0 -8 -21 -31
-47 -52 -27 -21 -78 -67 -116 -103 -37 -35 -69 -62 -71 -60 -16 18 -86 124
-86 131 0 5 -13 23 -30 41 -16 18 -33 47 -36 65 -5 27 12 136 60 389 3 12 7
48 11 80 3 32 10 75 14 95 5 20 6 39 3 42 -2 3 0 18 7 33 6 15 13 53 16 83 5
57 14 137 20 180 2 14 7 45 10 70 3 25 10 70 14 100 5 30 8 66 9 80 0 14 3 59
7 100 10 94 10 446 1 522 -9 78 -34 156 -54 174 -149 133 -268 149 -322 44
-24 -47 -25 -78 -4 -190 18 -100 22 -553 5 -660 -5 -36 -13 -90 -16 -120 -3
-30 -8 -66 -10 -80 -14 -90 -17 -120 -20 -161 -1 -26 -6 -52 -10 -58 -4 -7 -9
-38 -11 -69 -4 -49 -17 -147 -30 -217 -2 -10 -6 -35 -9 -55 -3 -20 -9 -56 -13
-80 l-7 -44 -46 -2 c-47 -2 -107 -27 -147 -62 -29 -26 -39 -83 -36 -217 3
-149 30 -249 87 -327 20 -26 25 -95 12 -158 -3 -14 -7 -43 -10 -65 -2 -22 -9
-83 -15 -135 -22 -204 -23 -209 -39 -325 -15 -104 -28 -204 -36 -285 -2 -30
-12 -93 -20 -140 -19 -99 -31 -491 -17 -517 5 -9 20 -17 33 -19 13 -1 49 -9
79 -17 30 -7 81 -13 113 -13 49 1 61 5 76 25 21 28 38 98 46 191 6 71 13 116
21 142 3 9 7 47 9 84 2 37 6 83 9 103 11 69 15 116 21 201 7 117 15 179 26
221 5 20 8 68 8 107 -1 38 4 85 10 104 6 18 17 80 25 137 8 57 19 108 24 113
15 15 81 -59 136 -152 27 -45 78 -146 113 -224 36 -77 85 -183 109 -234 24
-51 44 -94 44 -96 0 -2 27 -59 59 -127 60 -127 166 -376 216 -509 95 -251 144
-350 199 -398 25 -22 43 -29 63 -27 15 2 57 7 93 10 72 7 106 24 120 59 4 13
16 31 26 40 15 16 16 21 4 40 -29 45 -80 152 -80 166 0 9 -4 20 -9 25 -5 6
-21 48 -36 95 -14 47 -37 103 -49 125 -13 22 -27 51 -31 65 -24 86 -496 1081
-545 1150 -38 54 -27 75 85 154 54 39 147 117 206 174 58 56 112 102 118 102
6 0 21 16 32 35 12 20 30 40 40 46 11 5 19 16 19 24 0 7 27 47 59 88 76 96
103 139 129 208 19 51 64 140 83 164 4 6 15 41 23 78 9 37 23 81 31 97 8 16
15 39 15 52 0 13 6 33 14 44 24 33 41 113 45 212 2 34 33 28 156 -31 151 -74
311 -175 442 -281 236 -190 400 -360 471 -488 64 -114 75 -347 26 -551 -23
-94 -102 -245 -155 -297 -14 -14 -30 -33 -35 -41 -13 -21 -149 -129 -163 -129
-6 0 -11 -3 -11 -7 0 -5 -15 -16 -33 -27 -56 -32 -197 -106 -202 -106 -6 0 6
150 20 240 22 143 34 300 50 630 9 201 20 303 40 397 6 28 -80 116 -140 144
-75 35 -171 19 -203 -34 -33 -54 -40 -107 -47 -387 -3 -102 -7 -207 -9 -235
-12 -147 -18 -223 -21 -250 -3 -16 -7 -70 -11 -120 -4 -49 -8 -97 -10 -105 -1
-8 -3 -24 -3 -35 -1 -11 -5 -26 -10 -34 -8 -12 -13 -12 -34 2 -76 50 -326 127
-422 130 -82 3 -169 -44 -199 -106 -22 -48 -27 -133 -9 -177 29 -72 173 -239
263 -305 40 -30 62 -36 200 -60 85 -14 156 -28 158 -29 5 -6 2 -1547 -4 -1574
-14 -66 -26 -91 -39 -86 -7 3 -16 1 -20 -5 -3 -6 -15 -11 -27 -11 -19 0 -20
-4 -14 -77 6 -78 8 -90 20 -172 14 -83 57 -236 72 -251 17 -17 118 -28 182
-19 49 6 106 54 121 103 19 60 28 162 46 566 2 47 7 279 10 515 9 643 13 836
18 842 7 7 107 -95 577 -588 59 -61 193 -208 252 -274 56 -64 182 -234 225
-305 148 -244 278 -577 363 -930 12 -52 31 -107 41 -122 24 -34 75 -50 158
-52 59 -1 71 2 114 32 57 40 87 84 87 128 0 42 -56 263 -82 322 -11 26 -22 62
-24 81 -6 49 -45 140 -92 218 -26 42 -42 83 -44 106 -1 21 -6 41 -10 43 -4 3
-8 13 -8 24 0 10 -14 33 -32 51 -17 19 -41 52 -53 74 -12 22 -44 73 -71 114
-27 40 -54 81 -59 90 -76 122 -159 221 -417 496 -31 33 -71 76 -89 95 -18 19
-134 139 -258 265 -240 244 -384 402 -376 415 2 4 32 17 65 29 78 29 168 79
255 145 39 28 88 64 111 79 51 34 208 192 235 236 11 18 28 41 38 52 10 11 23
37 30 59 6 21 22 52 35 67 18 22 25 46 31 103 4 41 11 85 16 99 16 41 24 130
24 266 0 112 -4 139 -24 195 -36 98 -75 171 -115 213 -20 21 -36 43 -36 49 0
19 -364 373 -435 424 -38 27 -81 59 -95 70 -14 12 -47 41 -75 65 -27 23 -69
51 -91 61 -23 10 -47 25 -54 33 -7 8 -16 15 -21 15 -5 0 -82 35 -171 79 -90
43 -181 84 -203 91 -60 19 -88 35 -123 71 -30 31 -32 36 -25 83 11 83 6 295
-9 356 -4 19 -11 58 -13 85 -3 28 -9 68 -14 90 -5 22 -15 67 -21 100 -7 33
-21 85 -32 115 -11 30 -24 72 -29 94 -5 21 -16 51 -24 67 -8 15 -15 36 -15 45
0 32 -103 192 -132 204 -18 8 -33 28 -48 66 -43 104 -101 170 -160 180 -8 2
-16 7 -18 13 -7 22 -44 61 -53 56 -5 -4 -9 3 -9 13 0 25 -16 38 -66 51 -23 6
-44 18 -47 25 -3 8 -34 31 -69 51 -35 21 -78 51 -97 67 -40 35 -146 88 -177
88 -12 0 -27 7 -34 15 -14 17 -123 52 -190 60 -25 3 -117 7 -205 10 -119 3
-168 0 -190 -10z m1594 -4252 c29 -19 37 -29 26 -31 -15 -3 -95 42 -95 53 0
12 30 3 69 -22z"/>
</g>
</svg>
